<?xml version="1.0" encoding="utf-8"?>
<!-- Generator: Adobe Illustrator 22.1.0, SVG Export Plug-In . SVG Version: 6.00 Build 0)  -->
<svg version="1.1" id="Layer_1" xmlns="http://www.w3.org/2000/svg" xmlns:xlink="http://www.w3.org/1999/xlink" x="0px" y="0px"
	 viewBox="0 0 366.7 73.5" style="enable-background:new 0 0 366.7 73.5;" xml:space="preserve">
<style type="text/css">
	.st0{fill:none;stroke:#000000;stroke-width:9;stroke-linecap:round;stroke-linejoin:round;stroke-miterlimit:10;}
	.st1{fill:#FFFFFF;stroke:#FFFFFF;stroke-linecap:round;stroke-linejoin:round;stroke-miterlimit:10;}
</style>
<g>
	<g>
		<path class="st0" d="M48.1,30.3c0,0-3.5,8.6-5.7,11c-2,2.2-4,4-5.8,4.7c0,0,1.7,1.2,2.8,1.2c1.5,0,3-0.9,5.4-3.3v0.5
			c0,0-2.6,3.2-5.4,3.2c-1.4,0-3.4-1.3-3.4-1.3S34.7,47,33.6,47c-0.8,0-1.3-0.5-1.3-1.2s0.5-1.2,1.4-1.2c0.8,0,1.4,0.4,2.3,0.9
			c2.1-1.9,2.7-2.2,3.6-4.1c0.9-2,4-10.4,4-10.4c-4.1,1-5.6,1.2-7.2,1.5c-0.9,2.3-1.4,5.3-4.5,8.8c-3.1,3.5-6.9,5.7-12,5.7
			c-1.8,0-2.9-0.8-2.9-0.8s-1,2.5-1,5.7c0,8.7,6,12.8,10.6,12.8c6.3,0,7.6-5.6,7.6-5.6l0.4-0.1c0,0-1.3,6.1-8,6.1
			c-6.1,0-11.1-5.8-11.1-13.2c0-1.7,0.2-3,1.1-6c-0.7-0.4-5.3-2.6-5.3-9.3c0-9.6,9-11.5,9.5-11.6c0-0.9-0.3-2.7,0.8-4.7
			c2.2-4.3,6.5-6.6,10.1-6.6c6,0,7.3,4.3,11.5,7.5c0,0,2.1-0.5,3.4-0.1c0.7,0.2,1.2,0.5,1.2,1c0,0.6-0.4,1.2-1.5,1.2
			c-1.2,0-3-1.3-3-1.3s-2.2,0.9-3.1,1.9c-1.4,1.6-2,3.2-3,5.3c-0.4,0.9-0.5,1.8-0.7,2.7c0,0,5.7-1,7.2-1.5c1-2.2,2.1-3.5,3.7-5.5
			c2.1-2.7,7.1-5.6,11.4-5.6c1.5,0,2.5,0.8,2.5,1.7C61.2,25.5,52.7,29,48.1,30.3z M29.5,31.7c-0.1-0.8-0.7-1.9-0.7-1.9
			s-1.9,0.5-3.1,0.5c-4.5,0-4.9-4.9-4.9-4.9s-9.2,2-9.2,11.2c0,6.4,4.6,8.4,5,8.8c0.2-0.7,1.5-3.6,2-3.9c0,0-1.6-1-1.6-3.5
			c0-2.9,1.5-5.6,5-6.8l0.1,0.3c-3.1,1.3-4.6,3.9-4.6,6.6c0,2.1,1.3,3.2,1.5,3.2c1.2-1.7,3-4.1,6.5-5.9c1.8-0.9,4-1.8,4-1.8
			S29.7,32.4,29.5,31.7z M30.1,33.9c0,0-1.8,8.7-9,8.7c-1.1,0-2-0.7-2-0.7c-1,1.2-1.6,3.1-2,3.8c0,0,1.1,0.9,2.8,0.9
			c8.4,0,11.3-11.5,11.9-13.2C31.4,33.5,30.1,33.9,30.1,33.9z M25.7,35.8c-3.6,1.8-6,5.1-6.3,5.7c0.5,0.3,0.8,0.6,1.7,0.6
			c6.8,0,8.5-8,8.5-8S27.5,35,25.7,35.8z M30.5,15.9c-4.1,0-7.6,3-8.6,4.8c-0.8,1.4-0.7,3.5-0.6,4.4c1.4-0.1,3.1,0.2,4.1,0.7
			c1.3,0.5,2.3,1.5,3.7,3.4c1.5-0.8,3.4-2.1,4.2-2.8l0.2,0.3c-1.3,1.2-2.7,2.1-4.1,2.9c0.4,0.8,0.6,1.5,0.7,2
			c0.1,1.1,0.1,1.7,0.1,1.7l1.8-0.4c0,0,1.3-3,2.3-4.6c1.5-2.3,4.2-4.7,4.8-5c2-1.2,3.5-1.9,3.5-1.9S37.3,15.9,30.5,15.9z
			 M25.2,26.1c-2-0.8-4-0.7-4-0.7s0.4,4.5,4.5,4.5c0.6,0,2.9-0.5,2.9-0.5S27.2,26.9,25.2,26.1z M32.7,45.8c0,1.6,2.6,0.2,2.6,0
			C35.3,45.8,32.7,44.2,32.7,45.8z M44,21.7c0,0,3.4,2.1,3.4,0.4C47.3,20.6,44,21.7,44,21.7z M58.7,19.7c-4.4,0-9.6,6.9-10.5,9.9
			c5.6-1.3,12.6-5.2,12.6-8.6C60.9,20.3,60,19.7,58.7,19.7z"/>
		<path class="st0" d="M58.1,46.9c-1.8,0-2.5-1.1-3.2-2.6c-1.5,2.1-2.7,2.6-4,2.6c-1.6,0-2.8-1.5-2.8-4.4c0-4,3.9-9.6,9.3-9.6
			c0.9,0,1.5,0.1,2.1,1.1c0,0,0.5-0.7,0.9-0.7c0.5,0,1.3,0.3,1.8,0.3c0.3,0,0.9-1,1.4-1.2l-5.5,10.9c-0.6,1.2-0.7,1.6-0.7,2
			c0,0.4,0.3,0.9,0.9,0.9c1.5,0,6.8-5.3,10.4-10l0.3,0.3C64.7,42.3,60.2,46.9,58.1,46.9z M58.1,33.7c-3.6,0-7.5,8.6-7.5,11.1
			c0,0.9,0.1,1.5,0.8,1.5c1.5,0,2.6-1.7,3.3-2.9c1.7-3.1,4.3-7.8,4.3-8.5C59,34.2,58.7,33.7,58.1,33.7z"/>
		<path class="st0" d="M77.3,40.5c-0.8,2.2-5,6.4-9.6,6.4c-1.3,0-2.3-1.3-2.3-2.5c0-1.4,0.5-3.3,1.2-4.6l3-5.8
			c0.3-0.6,0.7-0.6,0.9-0.6c0.7,0,1.1,0.4,1.5,0.4c0.3,0,0.8-1,1.5-1.2l-5,10.1c-0.5,1-0.6,1.7-0.6,2c0,1.1,0.6,1.7,1.3,1.7
			c1.8,0,3.5-2,5.4-6.3c-1.1-1.4-1.3-2.4-1.3-3.2c0-2.4,1.8-4.2,3-4.2c1.2,0,2.4,1.7,2.4,3.4c0,1.6-0.8,3.4-1.2,4
			c1.5,0,4.1-1.2,6.8-3.7l0.3,0.3C83.3,38.1,80.4,40.4,77.3,40.5z M75.8,33.5c-1,0-1.9,1.8-1.9,3.2c0,1.1,0.5,1.9,1.2,2.7
			c0,0,1.8-3.2,1.8-3.9C76.8,34.6,76.6,33.5,75.8,33.5z"/>
		<path class="st0" d="M91.6,46.9c-1.8,0-2.5-1.1-3.2-2.6c-1.5,2.1-2.7,2.6-4,2.6c-1.6,0-2.8-1.5-2.8-4.4c0-4,3.9-9.6,9.3-9.6
			c0.9,0,1.5,0.1,2.1,1.1c0,0,0.5-0.7,0.9-0.7c0.5,0,1.3,0.3,1.8,0.3c0.3,0,0.9-1,1.4-1.2l-5.5,10.9c-0.6,1.2-0.7,1.6-0.7,2
			c0,0.4,0.3,0.9,0.9,0.9c1.5,0,6.8-5.3,10.4-10l0.3,0.3C98.1,42.3,93.7,46.9,91.6,46.9z M91.6,33.7c-3.6,0-7.5,8.6-7.5,11.1
			c0,0.9,0.1,1.5,0.8,1.5c1.5,0,2.6-1.7,3.3-2.9c1.7-3.1,4.3-7.8,4.3-8.5C92.5,34.2,92.2,33.7,91.6,33.7z"/>
		<path class="st0" d="M112.2,44.2c-1.2,1.5-2.4,2.7-4.2,2.7c-1.6,0-2.3-1.2-2.4-2.7c0-0.7,0-1.2,0.9-2.7l3.5-5.6
			c0.4-0.6,0.6-1.1,0.6-1.3c0-0.3-0.2-0.4-0.6-0.4c-1.2,0-4.2,2.2-7.3,7.7c-1.3,2.4-2,4.7-3,4.7c-0.5,0-1.1-0.4-1.5-0.4
			c-0.4,0-1.5,1.3-1.5,1.3l6.4-13.1c0.3-0.7,0.6-1.1,1.3-1.1c0.8,0,0.9,0.4,1.5,0.4c0.4,0,0.9-1,1.5-1.3l-2.1,4.3
			c2.8-2.6,4.4-3.7,6.3-3.7c1.2,0,1.9,0.8,1.9,2c0,0.8-0.2,1.4-0.8,2.4l-3.9,6.4c-0.4,0.7-0.8,1.2-0.8,1.5c0,0.5,0.2,0.8,0.9,0.8
			c0.8,0,2.1-1.1,3.5-2.7l6.1-7.2l0.3,0.3C117.7,37.7,112.2,44.2,112.2,44.2z"/>
		<path class="st0" d="M125.4,46.9c-1.8,0-2.5-1.1-3.2-2.6c-1.5,2.1-2.7,2.6-4,2.6c-1.6,0-2.8-1.5-2.8-4.4c0-4,3.9-9.6,9.3-9.6
			c0.9,0,1.5,0.1,2.1,1.1c0,0,0.5-0.7,0.9-0.7c0.5,0,1.3,0.3,1.8,0.3c0.3,0,0.9-1,1.4-1.2l-5.5,10.9c-0.6,1.2-0.7,1.6-0.7,2
			c0,0.4,0.3,0.9,0.9,0.9c1.5,0,6.8-5.3,10.4-10l0.3,0.3C131.9,42.3,127.5,46.9,125.4,46.9z M125.4,33.7c-3.6,0-7.5,8.6-7.5,11.1
			c0,0.9,0.1,1.5,0.8,1.5c1.5,0,2.6-1.7,3.3-2.9c1.7-3.1,4.3-7.8,4.3-8.5C126.3,34.2,126,33.7,125.4,33.7z"/>
		<path class="st0" d="M170.6,26.8c0,0,1,6.6,1,9.1c0,5.9-4.8,10.8-10.5,10.8c-5.5,0-9.3-4.8-9.3-9.8c0-4.3,2.5-7.3,2.9-7.8
			c-0.8-1.2-0.9-1.7-1.2-2.8c-1.4,0.8-6.3,4.2-6.3,12.2c0,7.7,5.9,14.3,13.2,14.3c5.1,0,9.1-3.9,9.1-3.9v0.4c0,0-3.5,4-9.1,4
			c-7.8,0-13.7-7.2-13.7-14.8c0-8.7,5.3-11.8,6.6-12.8c-0.1-6.6,7-11.2,13-11.2c4.5,0,5.8,2.4,5.8,2.4s0.8-0.8,2-0.5
			c1,0.2,1.5,1.2,1.5,2.4C175.7,21.8,170.7,26.8,170.6,26.8z M169.3,27.7c0,0-1.6,1.3-3.3,2.1c0,0,0.8,1.5,0.8,3.8
			c0,2.4-2.8,5.3-5.7,5.3c-1.8,0-3.2-1.4-3.2-3.1c0-1.7,1.2-3.1,2.6-3.1c0.8,0,1.2,0.4,1.9,1.6c-1.6,0.1-2.3,0.7-2.3,1.6
			c0,1.1,0.8,1.9,1.9,1.9c2.2,0,4.3-2.4,4.3-5c0-1.4-0.7-2.8-0.7-2.8s-2.6,1.4-5.1,1.4c-4.3,0-5.5-1.9-5.5-1.9s-2.8,3.5-2.7,7.4
			c0.1,2.1,1.7,8.5,7.3,8.5c6.5,0,9.8-9.9,9.8-15.6V27.7z M166.3,14.9c-4.4,0-12.3,3.7-12.5,10.7c0,0,2.5-2.1,7.5-2.8
			c4-0.5,7.5-0.6,8.3-0.6c0-1.9,1.1-4.5,2.3-5.2C171.9,17.1,170.3,14.9,166.3,14.9z M161.6,23.3c-5.3,0.8-7,2.5-7.7,2.8
			c0.1,0.5,0.5,1.8,1.2,2.6c0,0,2.3-2.1,5.5-2.1c2.3,0,3.4,0.7,5.2,2.7c1.5-0.7,3.6-2.3,3.6-2.3l0.2-4.3
			C169.6,22.7,164.4,22.9,161.6,23.3z M160.6,27c-3.5,0-5.2,2.1-5.2,2.1s1.1,1.8,5.1,1.8c2.5,0,4.8-1.4,4.8-1.4S163.6,27,160.6,27z
			 M173.5,16.9c-0.4,0-0.9,0.4-1,0.4c1.3,2.3-0.5,5-2,5.3l0.1,3.3c2.5-2.4,4-5.1,4-7.6C174.6,17.5,174.1,16.9,173.5,16.9z
			 M170.5,22.1c1.1-0.1,2.5-2.7,1.6-4.5C171.4,18.7,170.5,19.7,170.5,22.1z"/>
		<path class="st0" d="M183.1,42.1c-2.5,3.6-5.3,4.8-7.3,4.8c-1.2,0-2.2-1.3-2.2-2.9c0-1.2,0.3-1.9,0.9-3.1l3.3-7.1h-3.1l0.7-0.7
			h3.4c2.5-1.7,3.4-2.8,6.6-7.9h0.5l-4.2,7.9h3.1l-0.2,0.7h-3.1l-4.3,8.1c-0.5,0.9-1,1.7-1,2.4c0,0.6,0.5,1.7,1.1,1.7
			c1.7,0,4.4-2.5,5.6-4.2c0,0,2.8-3.8,4-5.6l0.3,0.3C185.6,38.9,183.1,42.1,183.1,42.1z"/>
		<path class="st0" d="M188.1,46.9c-1.4,0-2.2-1.2-2.3-3.3c0-2,3.5-6.5,3.5-7.7c0-0.3,0-0.3-0.2-0.3c-0.9,0-1.1,1.4-2.6,1.4
			c-0.7,0-1-0.7-1-1.7c0-1.5,1.3-3.4,2.4-3.4c0.5,0,1,0.4,1,1c0,0.8-0.6,2-1.5,3.1c2.1-1.9,3.3-3.1,4.4-3.1c0.9,0,1.5,0.8,1.5,1.7
			c0,0.9-0.5,1.4-0.9,2.2l-3.3,6c-0.5,0.9-0.8,1.6-0.8,1.8c0,0.8,0.5,1.2,1.1,1.2c2.8,0,6.5-4.9,9.5-9.6l0.3,0.3
			C193.8,45.3,190.9,46.9,188.1,46.9z M187.9,32.5c-0.8,0-1.7,1.9-1.7,2.7c0,0.6,0.2,0.8,0.5,0.8c0.8-1.1,1.6-2.4,1.6-3.1
			C188.3,32.7,188.2,32.5,187.9,32.5z"/>
		<path class="st0" d="M199.8,46.9c-2.3,0-3.7-2-3.7-4c0-6.2,6.4-10,9.5-10c1.3,0,2.4,1.1,2.4,2.4c0,4.4-7.2,6.1-8.6,6.1
			c-0.5,1.1-0.8,1.6-0.8,3.1c0,0.9,0.3,1.6,1.1,1.6c4.2,0,10.5-7.3,12-10l0.3,0.3C210.8,38.7,204.5,46.9,199.8,46.9z M205.1,33.4
			c-1.2,0-3.1,2.4-5.3,6.9c2.3,0,6.1-4.2,6.1-5.9C206,33.8,205.7,33.4,205.1,33.4z"/>
		<path class="st0" d="M212.6,46.9c-2.3,0-3.7-2-3.7-4c0-6.2,6.4-10,9.5-10c1.3,0,2.4,1.1,2.4,2.4c0,4.4-7.2,6.1-8.6,6.1
			c-0.5,1.1-0.8,1.6-0.8,3.1c0,0.9,0.3,1.6,1.1,1.6c4.2,0,10.5-7.3,12-10l0.3,0.3C223.6,38.7,217.3,46.9,212.6,46.9z M217.9,33.4
			c-1.2,0-3.1,2.4-5.3,6.9c2.3,0,6.1-4.2,6.1-5.9C218.8,33.8,218.5,33.4,217.9,33.4z"/>
		<path class="st0" d="M230.8,42.1c-2.5,3.6-5.3,4.8-7.3,4.8c-1.2,0-2.2-1.3-2.2-2.9c0-1.2,0.3-1.9,0.9-3.1l3.3-7.1h-3.1l0.7-0.7
			h3.4c2.5-1.7,3.4-2.8,6.6-7.9h0.5l-4.2,7.9h3.1l-0.2,0.7h-3.1l-4.3,8.1c-0.5,0.9-1,1.7-1,2.4c0,0.6,0.5,1.7,1.1,1.7
			c1.7,0,4.4-2.5,5.6-4.2c0,0,2.8-3.8,4-5.6l0.3,0.3C233.3,38.9,230.8,42.1,230.8,42.1z"/>
		<path class="st0" d="M303.5,20c-0.2,0-3.1,0.4-3.5,0.4c-4.3,0-13-5.5-19.2-5.5c-3.8,0-5.6,0.4-7,0.8c0.8,1,4.5,6.8,4.5,12
			c0,4.1-2.6,6.4-3,6.9c-0.5,2-1.8,6.4-6,10.3l-0.3-0.3c2-2.4,4.3-4.6,5.5-9.4c-0.5,0.2-1,0.3-1.9,0.3c-3.9,0-6.9-3.8-6.9-8.8
			c0-3.2,2.1-6.4,2.1-6.4c-2.1-0.7-3.2-1.1-4.2-1.1c-8,0-14.2,6.9-14.2,15.4c0,8.2,6.5,15.2,14.2,15.2c5.8,0,11-4,13.1-10.4
			c4.1-12,3.4-15.4,8.5-18.4c1.8-1.1,4.5-1.6,7.3-1.9l-0.1,0.5c-5,0.7-7.6,2.4-8.4,6c-0.8,3.8-1.1,6-2.1,9.6
			c-2.9,10.3-10.2,14.9-18.3,14.9c-8,0-14.6-6.9-14.6-15.6c0-8.6,5.8-16,14.6-16c1.4,0,3.2,0.6,4.5,1.1c0,0,2.6-3.8,4.4-4.7
			c0,0-3.5-4.8-10.4-4.8c-11.6,0-16.3,12.7-16.6,16.9l-0.4,0c0.4-6.1,5.9-17.3,17-17.3c7.4,0,11.1,5,11.1,5c3.5-1.7,5.1-2.1,7.6-2.1
			c8.1,0,13.4,7.2,19.9,7.2c0.8,0,1.8-0.1,3.4-0.5C303.7,19.7,303.6,19.9,303.5,20z M268.5,20.6c-0.7,0.8-2.3,4-2.3,6
			c0,4.8,2.9,8.4,6.4,8.4c0.9,0,1.4-0.2,2-0.5C275.5,26.6,272.8,23,268.5,20.6z M273.2,16c-0.4,0.3-2.1,1.1-4.5,4.1
			c4.9,2.8,7.1,6.1,6.6,13.7c0.5-0.5,2.4-2.6,2.4-6C277.8,22.5,273.5,16.3,273.2,16z"/>
		<path class="st0" d="M294,46.9c-1.8,0-2.5-1.1-3.2-2.6c-1.5,2.1-2.7,2.6-4,2.6c-1.6,0-2.8-1.5-2.8-4.4c0-4,3.9-9.6,9.3-9.6
			c0.9,0,1.5,0.1,2.1,1.1c0,0,0.5-0.7,0.9-0.7c0.5,0,1.3,0.3,1.8,0.3c0.3,0,0.9-1,1.4-1.2l-5.5,10.9c-0.6,1.2-0.7,1.6-0.7,2
			c0,0.4,0.3,0.9,0.9,0.9c1.5,0,6.8-5.3,10.4-10l0.3,0.3C300.6,42.3,296.1,46.9,294,46.9z M294,33.7c-3.6,0-7.5,8.6-7.5,11.1
			c0,0.9,0.1,1.5,0.8,1.5c1.5,0,2.6-1.7,3.3-2.9c1.7-3.1,4.3-7.8,4.3-8.5C294.9,34.2,294.6,33.7,294,33.7z"/>
		<path class="st0" d="M310.9,42.1c-2.5,3.6-5.3,4.8-7.3,4.8c-1.2,0-2.2-1.3-2.2-2.9c0-1.2,0.3-1.9,0.9-3.1l3.3-7.1h-3.1l0.7-0.7
			h3.4c2.5-1.7,3.4-2.8,6.6-7.9h0.5l-4.2,7.9h3.1l-0.2,0.7H309l-4.3,8.1c-0.5,0.9-1,1.7-1,2.4c0,0.6,0.5,1.7,1.1,1.7
			c1.7,0,4.4-2.5,5.6-4.2c0,0,2.8-3.8,4-5.6l0.3,0.3C313.4,38.9,310.9,42.1,310.9,42.1z"/>
		<path class="st0" d="M320.7,42.1c-2.5,3.6-5.3,4.8-7.3,4.8c-1.2,0-2.2-1.3-2.2-2.9c0-1.2,0.3-1.9,0.9-3.1l3.3-7.1h-3.1l0.7-0.7
			h3.4c2.5-1.7,3.4-2.8,6.6-7.9h0.5l-4.2,7.9h3.1l-0.2,0.7h-3.1l-4.3,8.1c-0.5,0.9-1,1.7-1,2.4c0,0.6,0.5,1.7,1.1,1.7
			c1.7,0,4.4-2.5,5.6-4.2c0,0,2.8-3.8,4-5.6l0.3,0.3C323.2,38.9,320.7,42.1,320.7,42.1z"/>
		<path class="st0" d="M334.8,40.6c-0.8,0.3-1.3,0.5-1.9,0.7c-1,1.8-4.3,5.6-8.3,5.6c-2,0-3.2-2.1-3.2-4.1c0-5.1,4.8-9.9,9.5-9.9
			c1.9,0,3.4,1.8,3.4,4.2c0,1.6-0.7,2.8-1,3.6c0.4-0.1,0.8-0.3,1.3-0.5c2.3-1.1,4-2.8,5-3.9l0.3,0.3C339,37.8,337,39.3,334.8,40.6z
			 M330.8,33.4c-2.5,0-6.9,8.3-6.9,11.4c0,1,0.2,1.5,0.8,1.5c1.5,0,3-1.5,5.2-5.4c-1.7-0.6-2.3-1.3-2.3-2.2c0-0.9,0.6-1.4,1.3-1.4
			c0.5,0,0.9,0.3,0.9,0.9c0,0.8-1.1,0.9-1.1,0.9c0.2,0.7,1.1,1.2,1.6,1.3c1.3-2.9,1.6-4.4,1.6-6C331.8,33.8,331.5,33.4,330.8,33.4z"
			/>
		<path class="st0" d="M350.2,40.6c-0.8,0.3-1.3,0.5-1.9,0.7c-1,1.8-4.3,5.6-8.3,5.6c-2,0-3.2-2.1-3.2-4.1c0-5.1,4.8-9.9,9.5-9.9
			c1.9,0,3.4,1.8,3.4,4.2c0,1.6-0.7,2.8-1,3.6c0.4-0.1,0.8-0.3,1.3-0.5c2.3-1.1,4-2.8,5-3.9l0.3,0.3
			C354.4,37.8,352.4,39.3,350.2,40.6z M346.2,33.4c-2.5,0-6.9,8.3-6.9,11.4c0,1,0.2,1.5,0.8,1.5c1.5,0,3-1.5,5.2-5.4
			c-1.7-0.6-2.3-1.3-2.3-2.2c0-0.9,0.6-1.4,1.3-1.4c0.5,0,0.9,0.3,0.9,0.9c0,0.8-1.1,0.9-1.1,0.9c0.2,0.7,1.1,1.2,1.6,1.3
			c1.3-2.9,1.6-4.4,1.6-6C347.2,33.8,346.9,33.4,346.2,33.4z"/>
	</g>
	<g>
		<path class="st1" d="M48.1,30.3c0,0-3.5,8.6-5.7,11c-2,2.2-4,4-5.8,4.7c0,0,1.7,1.2,2.8,1.2c1.5,0,3-0.9,5.4-3.3v0.5
			c0,0-2.6,3.2-5.4,3.2c-1.4,0-3.4-1.3-3.4-1.3S34.7,47,33.6,47c-0.8,0-1.3-0.5-1.3-1.2s0.5-1.2,1.4-1.2c0.8,0,1.4,0.4,2.3,0.9
			c2.1-1.9,2.7-2.2,3.6-4.1c0.9-2,4-10.4,4-10.4c-4.1,1-5.6,1.2-7.2,1.5c-0.9,2.3-1.4,5.3-4.5,8.8c-3.1,3.5-6.9,5.7-12,5.7
			c-1.8,0-2.9-0.8-2.9-0.8s-1,2.5-1,5.7c0,8.7,6,12.8,10.6,12.8c6.3,0,7.6-5.6,7.6-5.6l0.4-0.1c0,0-1.3,6.1-8,6.1
			c-6.1,0-11.1-5.8-11.1-13.2c0-1.7,0.2-3,1.1-6c-0.7-0.4-5.3-2.6-5.3-9.3c0-9.6,9-11.5,9.5-11.6c0-0.9-0.3-2.7,0.8-4.7
			c2.2-4.3,6.5-6.6,10.1-6.6c6,0,7.3,4.3,11.5,7.5c0,0,2.1-0.5,3.4-0.1c0.7,0.2,1.2,0.5,1.2,1c0,0.6-0.4,1.2-1.5,1.2
			c-1.2,0-3-1.3-3-1.3s-2.2,0.9-3.1,1.9c-1.4,1.6-2,3.2-3,5.3c-0.4,0.9-0.5,1.8-0.7,2.7c0,0,5.7-1,7.2-1.5c1-2.2,2.1-3.5,3.7-5.5
			c2.1-2.7,7.1-5.6,11.4-5.6c1.5,0,2.5,0.8,2.5,1.7C61.2,25.5,52.7,29,48.1,30.3z M29.5,31.7c-0.1-0.8-0.7-1.9-0.7-1.9
			s-1.9,0.5-3.1,0.5c-4.5,0-4.9-4.9-4.9-4.9s-9.2,2-9.2,11.2c0,6.4,4.6,8.4,5,8.8c0.2-0.7,1.5-3.6,2-3.9c0,0-1.6-1-1.6-3.5
			c0-2.9,1.5-5.6,5-6.8l0.1,0.3c-3.1,1.3-4.6,3.9-4.6,6.6c0,2.1,1.3,3.2,1.5,3.2c1.2-1.7,3-4.1,6.5-5.9c1.8-0.9,4-1.8,4-1.8
			S29.7,32.4,29.5,31.7z M30.1,33.9c0,0-1.8,8.7-9,8.7c-1.1,0-2-0.7-2-0.7c-1,1.2-1.6,3.1-2,3.8c0,0,1.1,0.9,2.8,0.9
			c8.4,0,11.3-11.5,11.9-13.2C31.4,33.5,30.1,33.9,30.1,33.9z M25.7,35.8c-3.6,1.8-6,5.1-6.3,5.7c0.5,0.3,0.8,0.6,1.7,0.6
			c6.8,0,8.5-8,8.5-8S27.5,35,25.7,35.8z M30.5,15.9c-4.1,0-7.6,3-8.6,4.8c-0.8,1.4-0.7,3.5-0.6,4.4c1.4-0.1,3.1,0.2,4.1,0.7
			c1.3,0.5,2.3,1.5,3.7,3.4c1.5-0.8,3.4-2.1,4.2-2.8l0.2,0.3c-1.3,1.2-2.7,2.1-4.1,2.9c0.4,0.8,0.6,1.5,0.7,2
			c0.1,1.1,0.1,1.7,0.1,1.7l1.8-0.4c0,0,1.3-3,2.3-4.6c1.5-2.3,4.2-4.7,4.8-5c2-1.2,3.5-1.9,3.5-1.9S37.3,15.9,30.5,15.9z
			 M25.2,26.1c-2-0.8-4-0.7-4-0.7s0.4,4.5,4.5,4.5c0.6,0,2.9-0.5,2.9-0.5S27.2,26.9,25.2,26.1z M32.7,45.8c0,1.6,2.6,0.2,2.6,0
			C35.3,45.8,32.7,44.2,32.7,45.8z M44,21.7c0,0,3.4,2.1,3.4,0.4C47.3,20.6,44,21.7,44,21.7z M58.7,19.7c-4.4,0-9.6,6.9-10.5,9.9
			c5.6-1.3,12.6-5.2,12.6-8.6C60.9,20.3,60,19.7,58.7,19.7z"/>
		<path class="st1" d="M58.1,46.9c-1.8,0-2.5-1.1-3.2-2.6c-1.5,2.1-2.7,2.6-4,2.6c-1.6,0-2.8-1.5-2.8-4.4c0-4,3.9-9.6,9.3-9.6
			c0.9,0,1.5,0.1,2.1,1.1c0,0,0.5-0.7,0.9-0.7c0.5,0,1.3,0.3,1.8,0.3c0.3,0,0.9-1,1.4-1.2l-5.5,10.9c-0.6,1.2-0.7,1.6-0.7,2
			c0,0.4,0.3,0.9,0.9,0.9c1.5,0,6.8-5.3,10.4-10l0.3,0.3C64.7,42.3,60.2,46.9,58.1,46.9z M58.1,33.7c-3.6,0-7.5,8.6-7.5,11.1
			c0,0.9,0.1,1.5,0.8,1.5c1.5,0,2.6-1.7,3.3-2.9c1.7-3.1,4.3-7.8,4.3-8.5C59,34.2,58.7,33.7,58.1,33.7z"/>
		<path class="st1" d="M77.3,40.5c-0.8,2.2-5,6.4-9.6,6.4c-1.3,0-2.3-1.3-2.3-2.5c0-1.4,0.5-3.3,1.2-4.6l3-5.8
			c0.3-0.6,0.7-0.6,0.9-0.6c0.7,0,1.1,0.4,1.5,0.4c0.3,0,0.8-1,1.5-1.2l-5,10.1c-0.5,1-0.6,1.7-0.6,2c0,1.1,0.6,1.7,1.3,1.7
			c1.8,0,3.5-2,5.4-6.3c-1.1-1.4-1.3-2.4-1.3-3.2c0-2.4,1.8-4.2,3-4.2c1.2,0,2.4,1.7,2.4,3.4c0,1.6-0.8,3.4-1.2,4
			c1.5,0,4.1-1.2,6.8-3.7l0.3,0.3C83.3,38.1,80.4,40.4,77.3,40.5z M75.8,33.5c-1,0-1.9,1.8-1.9,3.2c0,1.1,0.5,1.9,1.2,2.7
			c0,0,1.8-3.2,1.8-3.9C76.8,34.6,76.6,33.5,75.8,33.5z"/>
		<path class="st1" d="M91.6,46.9c-1.8,0-2.5-1.1-3.2-2.6c-1.5,2.1-2.7,2.6-4,2.6c-1.6,0-2.8-1.5-2.8-4.4c0-4,3.9-9.6,9.3-9.6
			c0.9,0,1.5,0.1,2.1,1.1c0,0,0.5-0.7,0.9-0.7c0.5,0,1.3,0.3,1.8,0.3c0.3,0,0.9-1,1.4-1.2l-5.5,10.9c-0.6,1.2-0.7,1.6-0.7,2
			c0,0.4,0.3,0.9,0.9,0.9c1.5,0,6.8-5.3,10.4-10l0.3,0.3C98.1,42.3,93.7,46.9,91.6,46.9z M91.6,33.7c-3.6,0-7.5,8.6-7.5,11.1
			c0,0.9,0.1,1.5,0.8,1.5c1.5,0,2.6-1.7,3.3-2.9c1.7-3.1,4.3-7.8,4.3-8.5C92.5,34.2,92.2,33.7,91.6,33.7z"/>
		<path class="st1" d="M112.2,44.2c-1.2,1.5-2.4,2.7-4.2,2.7c-1.6,0-2.3-1.2-2.4-2.7c0-0.7,0-1.2,0.9-2.7l3.5-5.6
			c0.4-0.6,0.6-1.1,0.6-1.3c0-0.3-0.2-0.4-0.6-0.4c-1.2,0-4.2,2.2-7.3,7.7c-1.3,2.4-2,4.7-3,4.7c-0.5,0-1.1-0.4-1.5-0.4
			c-0.4,0-1.5,1.3-1.5,1.3l6.4-13.1c0.3-0.7,0.6-1.1,1.3-1.1c0.8,0,0.9,0.4,1.5,0.4c0.4,0,0.9-1,1.5-1.3l-2.1,4.3
			c2.8-2.6,4.4-3.7,6.3-3.7c1.2,0,1.9,0.8,1.9,2c0,0.8-0.2,1.4-0.8,2.4l-3.9,6.4c-0.4,0.7-0.8,1.2-0.8,1.5c0,0.5,0.2,0.8,0.9,0.8
			c0.8,0,2.1-1.1,3.5-2.7l6.1-7.2l0.3,0.3C117.7,37.7,112.2,44.2,112.2,44.2z"/>
		<path class="st1" d="M125.4,46.9c-1.8,0-2.5-1.1-3.2-2.6c-1.5,2.1-2.7,2.6-4,2.6c-1.6,0-2.8-1.5-2.8-4.4c0-4,3.9-9.6,9.3-9.6
			c0.9,0,1.5,0.1,2.1,1.1c0,0,0.5-0.7,0.9-0.7c0.5,0,1.3,0.3,1.8,0.3c0.3,0,0.9-1,1.4-1.2l-5.5,10.9c-0.6,1.2-0.7,1.6-0.7,2
			c0,0.4,0.3,0.9,0.9,0.9c1.5,0,6.8-5.3,10.4-10l0.3,0.3C131.9,42.3,127.5,46.9,125.4,46.9z M125.4,33.7c-3.6,0-7.5,8.6-7.5,11.1
			c0,0.9,0.1,1.5,0.8,1.5c1.5,0,2.6-1.7,3.3-2.9c1.7-3.1,4.3-7.8,4.3-8.5C126.3,34.2,126,33.7,125.4,33.7z"/>
		<path class="st1" d="M170.6,26.8c0,0,1,6.6,1,9.1c0,5.9-4.8,10.8-10.5,10.8c-5.5,0-9.3-4.8-9.3-9.8c0-4.3,2.5-7.3,2.9-7.8
			c-0.8-1.2-0.9-1.7-1.2-2.8c-1.4,0.8-6.3,4.2-6.3,12.2c0,7.7,5.9,14.3,13.2,14.3c5.1,0,9.1-3.9,9.1-3.9v0.4c0,0-3.5,4-9.1,4
			c-7.8,0-13.7-7.2-13.7-14.8c0-8.7,5.3-11.8,6.6-12.8c-0.1-6.6,7-11.2,13-11.2c4.5,0,5.8,2.4,5.8,2.4s0.8-0.8,2-0.5
			c1,0.2,1.5,1.2,1.5,2.4C175.7,21.8,170.7,26.8,170.6,26.8z M169.3,27.7c0,0-1.6,1.3-3.3,2.1c0,0,0.8,1.5,0.8,3.8
			c0,2.4-2.8,5.3-5.7,5.3c-1.8,0-3.2-1.4-3.2-3.1c0-1.7,1.2-3.1,2.6-3.1c0.8,0,1.2,0.4,1.9,1.6c-1.6,0.1-2.3,0.7-2.3,1.6
			c0,1.1,0.8,1.9,1.9,1.9c2.2,0,4.3-2.4,4.3-5c0-1.4-0.7-2.8-0.7-2.8s-2.6,1.4-5.1,1.4c-4.3,0-5.5-1.9-5.5-1.9s-2.8,3.5-2.7,7.4
			c0.1,2.1,1.7,8.5,7.3,8.5c6.5,0,9.8-9.9,9.8-15.6V27.7z M166.3,14.9c-4.4,0-12.3,3.7-12.5,10.7c0,0,2.5-2.1,7.5-2.8
			c4-0.5,7.5-0.6,8.3-0.6c0-1.9,1.1-4.5,2.3-5.2C171.9,17.1,170.3,14.9,166.3,14.9z M161.6,23.3c-5.3,0.8-7,2.5-7.7,2.8
			c0.1,0.5,0.5,1.8,1.2,2.6c0,0,2.3-2.1,5.5-2.1c2.3,0,3.4,0.7,5.2,2.7c1.5-0.7,3.6-2.3,3.6-2.3l0.2-4.3
			C169.6,22.7,164.4,22.9,161.6,23.3z M160.6,27c-3.5,0-5.2,2.1-5.2,2.1s1.1,1.8,5.1,1.8c2.5,0,4.8-1.4,4.8-1.4S163.6,27,160.6,27z
			 M173.5,16.9c-0.4,0-0.9,0.4-1,0.4c1.3,2.3-0.5,5-2,5.3l0.1,3.3c2.5-2.4,4-5.1,4-7.6C174.6,17.5,174.1,16.9,173.5,16.9z
			 M170.5,22.1c1.1-0.1,2.5-2.7,1.6-4.5C171.4,18.7,170.5,19.7,170.5,22.1z"/>
		<path class="st1" d="M183.1,42.1c-2.5,3.6-5.3,4.8-7.3,4.8c-1.2,0-2.2-1.3-2.2-2.9c0-1.2,0.3-1.9,0.9-3.1l3.3-7.1h-3.1l0.7-0.7
			h3.4c2.5-1.7,3.4-2.8,6.6-7.9h0.5l-4.2,7.9h3.1l-0.2,0.7h-3.1l-4.3,8.1c-0.5,0.9-1,1.7-1,2.4c0,0.6,0.5,1.7,1.1,1.7
			c1.7,0,4.4-2.5,5.6-4.2c0,0,2.8-3.8,4-5.6l0.3,0.3C185.6,38.9,183.1,42.1,183.1,42.1z"/>
		<path class="st1" d="M188.1,46.9c-1.4,0-2.2-1.2-2.3-3.3c0-2,3.5-6.5,3.5-7.7c0-0.3,0-0.3-0.2-0.3c-0.9,0-1.1,1.4-2.6,1.4
			c-0.7,0-1-0.7-1-1.7c0-1.5,1.3-3.4,2.4-3.4c0.5,0,1,0.4,1,1c0,0.8-0.6,2-1.5,3.1c2.1-1.9,3.3-3.1,4.4-3.1c0.9,0,1.5,0.8,1.5,1.7
			c0,0.9-0.5,1.4-0.9,2.2l-3.3,6c-0.5,0.9-0.8,1.6-0.8,1.8c0,0.8,0.5,1.2,1.1,1.2c2.8,0,6.5-4.9,9.5-9.6l0.3,0.3
			C193.8,45.3,190.9,46.9,188.1,46.9z M187.9,32.5c-0.8,0-1.7,1.9-1.7,2.7c0,0.6,0.2,0.8,0.5,0.8c0.8-1.1,1.6-2.4,1.6-3.1
			C188.3,32.7,188.2,32.5,187.9,32.5z"/>
		<path class="st1" d="M199.8,46.9c-2.3,0-3.7-2-3.7-4c0-6.2,6.4-10,9.5-10c1.3,0,2.4,1.1,2.4,2.4c0,4.4-7.2,6.1-8.6,6.1
			c-0.5,1.1-0.8,1.6-0.8,3.1c0,0.9,0.3,1.6,1.1,1.6c4.2,0,10.5-7.3,12-10l0.3,0.3C210.8,38.7,204.5,46.9,199.8,46.9z M205.1,33.4
			c-1.2,0-3.1,2.4-5.3,6.9c2.3,0,6.1-4.2,6.1-5.9C206,33.8,205.7,33.4,205.1,33.4z"/>
		<path class="st1" d="M212.6,46.9c-2.3,0-3.7-2-3.7-4c0-6.2,6.4-10,9.5-10c1.3,0,2.4,1.1,2.4,2.4c0,4.4-7.2,6.1-8.6,6.1
			c-0.5,1.1-0.8,1.6-0.8,3.1c0,0.9,0.3,1.6,1.1,1.6c4.2,0,10.5-7.3,12-10l0.3,0.3C223.6,38.7,217.3,46.9,212.6,46.9z M217.9,33.4
			c-1.2,0-3.1,2.4-5.3,6.9c2.3,0,6.1-4.2,6.1-5.9C218.8,33.8,218.5,33.4,217.9,33.4z"/>
		<path class="st1" d="M230.8,42.1c-2.5,3.6-5.3,4.8-7.3,4.8c-1.2,0-2.2-1.3-2.2-2.9c0-1.2,0.3-1.9,0.9-3.1l3.3-7.1h-3.1l0.7-0.7
			h3.4c2.5-1.7,3.4-2.8,6.6-7.9h0.5l-4.2,7.9h3.1l-0.2,0.7h-3.1l-4.3,8.1c-0.5,0.9-1,1.7-1,2.4c0,0.6,0.5,1.7,1.1,1.7
			c1.7,0,4.4-2.5,5.6-4.2c0,0,2.8-3.8,4-5.6l0.3,0.3C233.3,38.9,230.8,42.1,230.8,42.1z"/>
		<path class="st1" d="M303.5,20c-0.2,0-3.1,0.4-3.5,0.4c-4.3,0-13-5.5-19.2-5.5c-3.8,0-5.6,0.4-7,0.8c0.8,1,4.5,6.8,4.5,12
			c0,4.1-2.6,6.4-3,6.9c-0.5,2-1.8,6.4-6,10.3l-0.3-0.3c2-2.4,4.3-4.6,5.5-9.4c-0.5,0.2-1,0.3-1.9,0.3c-3.9,0-6.9-3.8-6.9-8.8
			c0-3.2,2.1-6.4,2.1-6.4c-2.1-0.7-3.2-1.1-4.2-1.1c-8,0-14.2,6.9-14.2,15.4c0,8.2,6.5,15.2,14.2,15.2c5.8,0,11-4,13.1-10.4
			c4.1-12,3.4-15.4,8.5-18.4c1.8-1.1,4.5-1.6,7.3-1.9l-0.1,0.5c-5,0.7-7.6,2.4-8.4,6c-0.8,3.8-1.1,6-2.1,9.6
			c-2.9,10.3-10.2,14.9-18.3,14.9c-8,0-14.6-6.9-14.6-15.6c0-8.6,5.8-16,14.6-16c1.4,0,3.2,0.6,4.5,1.1c0,0,2.6-3.8,4.4-4.7
			c0,0-3.5-4.8-10.4-4.8c-11.6,0-16.3,12.7-16.6,16.9l-0.4,0c0.4-6.1,5.9-17.3,17-17.3c7.4,0,11.1,5,11.1,5c3.5-1.7,5.1-2.1,7.6-2.1
			c8.1,0,13.4,7.2,19.9,7.2c0.8,0,1.8-0.1,3.4-0.5C303.7,19.7,303.6,19.9,303.5,20z M268.5,20.6c-0.7,0.8-2.3,4-2.3,6
			c0,4.8,2.9,8.4,6.4,8.4c0.9,0,1.4-0.2,2-0.5C275.5,26.6,272.8,23,268.5,20.6z M273.2,16c-0.4,0.3-2.1,1.1-4.5,4.1
			c4.9,2.8,7.1,6.1,6.6,13.7c0.5-0.5,2.4-2.6,2.4-6C277.8,22.5,273.5,16.3,273.2,16z"/>
		<path class="st1" d="M294,46.9c-1.8,0-2.5-1.1-3.2-2.6c-1.5,2.1-2.7,2.6-4,2.6c-1.6,0-2.8-1.5-2.8-4.4c0-4,3.9-9.6,9.3-9.6
			c0.9,0,1.5,0.1,2.1,1.1c0,0,0.5-0.7,0.9-0.7c0.5,0,1.3,0.3,1.8,0.3c0.3,0,0.9-1,1.4-1.2l-5.5,10.9c-0.6,1.2-0.7,1.6-0.7,2
			c0,0.4,0.3,0.9,0.9,0.9c1.5,0,6.8-5.3,10.4-10l0.3,0.3C300.6,42.3,296.1,46.9,294,46.9z M294,33.7c-3.6,0-7.5,8.6-7.5,11.1
			c0,0.9,0.1,1.5,0.8,1.5c1.5,0,2.6-1.7,3.3-2.9c1.7-3.1,4.3-7.8,4.3-8.5C294.9,34.2,294.6,33.7,294,33.7z"/>
		<path class="st1" d="M310.9,42.1c-2.5,3.6-5.3,4.8-7.3,4.8c-1.2,0-2.2-1.3-2.2-2.9c0-1.2,0.3-1.9,0.9-3.1l3.3-7.1h-3.1l0.7-0.7
			h3.4c2.5-1.7,3.4-2.8,6.6-7.9h0.5l-4.2,7.9h3.1l-0.2,0.7H309l-4.3,8.1c-0.5,0.9-1,1.7-1,2.4c0,0.6,0.5,1.7,1.1,1.7
			c1.7,0,4.4-2.5,5.6-4.2c0,0,2.8-3.8,4-5.6l0.3,0.3C313.4,38.9,310.9,42.1,310.9,42.1z"/>
		<path class="st1" d="M320.7,42.1c-2.5,3.6-5.3,4.8-7.3,4.8c-1.2,0-2.2-1.3-2.2-2.9c0-1.2,0.3-1.9,0.9-3.1l3.3-7.1h-3.1l0.7-0.7
			h3.4c2.5-1.7,3.4-2.8,6.6-7.9h0.5l-4.2,7.9h3.1l-0.2,0.7h-3.1l-4.3,8.1c-0.5,0.9-1,1.7-1,2.4c0,0.6,0.5,1.7,1.1,1.7
			c1.7,0,4.4-2.5,5.6-4.2c0,0,2.8-3.8,4-5.6l0.3,0.3C323.2,38.9,320.7,42.1,320.7,42.1z"/>
		<path class="st1" d="M334.8,40.6c-0.8,0.3-1.3,0.5-1.9,0.7c-1,1.8-4.3,5.6-8.3,5.6c-2,0-3.2-2.1-3.2-4.1c0-5.1,4.8-9.9,9.5-9.9
			c1.9,0,3.4,1.8,3.4,4.2c0,1.6-0.7,2.8-1,3.6c0.4-0.1,0.8-0.3,1.3-0.5c2.3-1.1,4-2.8,5-3.9l0.3,0.3C339,37.8,337,39.3,334.8,40.6z
			 M330.8,33.4c-2.5,0-6.9,8.3-6.9,11.4c0,1,0.2,1.5,0.8,1.5c1.5,0,3-1.5,5.2-5.4c-1.7-0.6-2.3-1.3-2.3-2.2c0-0.9,0.6-1.4,1.3-1.4
			c0.5,0,0.9,0.3,0.9,0.9c0,0.8-1.1,0.9-1.1,0.9c0.2,0.7,1.1,1.2,1.6,1.3c1.3-2.9,1.6-4.4,1.6-6C331.8,33.8,331.5,33.4,330.8,33.4z"
			/>
		<path class="st1" d="M350.2,40.6c-0.8,0.3-1.3,0.5-1.9,0.7c-1,1.8-4.3,5.6-8.3,5.6c-2,0-3.2-2.1-3.2-4.1c0-5.1,4.8-9.9,9.5-9.9
			c1.9,0,3.4,1.8,3.4,4.2c0,1.6-0.7,2.8-1,3.6c0.4-0.1,0.8-0.3,1.3-0.5c2.3-1.1,4-2.8,5-3.9l0.3,0.3
			C354.4,37.8,352.4,39.3,350.2,40.6z M346.2,33.4c-2.5,0-6.9,8.3-6.9,11.4c0,1,0.2,1.5,0.8,1.5c1.5,0,3-1.5,5.2-5.4
			c-1.7-0.6-2.3-1.3-2.3-2.2c0-0.9,0.6-1.4,1.3-1.4c0.5,0,0.9,0.3,0.9,0.9c0,0.8-1.1,0.9-1.1,0.9c0.2,0.7,1.1,1.2,1.6,1.3
			c1.3-2.9,1.6-4.4,1.6-6C347.2,33.8,346.9,33.4,346.2,33.4z"/>
	</g>
</g>
</svg>
