<?xml version="1.0" encoding="UTF-8"?>
<svg width="30px" height="31px" viewBox="0 0 30 31" version="1.1" xmlns="http://www.w3.org/2000/svg" xmlns:xlink="http://www.w3.org/1999/xlink">
    <!-- Generator: Sketch 49.3 (51167) - http://www.bohemiancoding.com/sketch -->
    <title>aftercare-icon--black</title>
    <desc>Created with Sketch.</desc>
    <defs></defs>
    <g id="aftercare-icon--black" stroke="none" stroke-width="1" fill="none" fill-rule="evenodd">
        <g id="Page-1" transform="translate(1.000000, 1.000000)" fill="#000000">
            <path d="M10.5097135,1.80532985 C9.35408986,0.648908955 7.78994807,0 6.15604972,0 C4.52385062,0 2.95805315,0.648908955 1.80408521,1.80532985 C0.650160833,2.96005032 0,4.52697164 0,6.16029681 C0,7.79362197 0.650160833,9.36049969 1.80408521,10.5152638 L17.7705399,26.4565452 C20.2077934,28.6110293 23.8974409,28.4969264 26.1970984,26.1959614 C28.4967558,23.8949964 28.6105187,20.2026116 26.4575025,17.7635894 L10.5097135,1.80532985 Z M21.2969283,16.7555678 C21.5403094,16.5120188 21.9045206,16.4387827 22.222804,16.5699248 C22.5410743,16.7027717 22.7470022,17.0110329 22.7470022,17.3550859 C22.7470022,17.6991215 22.5410613,18.0090962 22.222804,18.140247 C21.9045337,18.2713891 21.5403138,18.1981531 21.2969283,17.954604 C20.9667457,17.6241937 20.9667457,17.0876917 21.2969283,16.7555853 L21.2969283,16.7555678 Z M10.3140814,5.76514382 C10.5557633,5.52159477 10.9216737,5.4483587 11.2399571,5.57950084 C11.5565238,5.71064297 11.7641553,6.02060894 11.7641553,6.36466192 C11.7641553,6.70871491 11.5565151,7.01867216 11.2399571,7.14982301 C10.9216868,7.28096514 10.5557676,7.20772908 10.3140814,6.96418003 C9.98389885,6.63206491 9.98389885,6.09726766 10.3140814,5.76516126 L10.3140814,5.76514382 Z M8.11341637,3.56296056 C8.35509826,3.31941151 8.72100871,3.24617544 9.03759285,3.37731757 C9.35586318,3.50845971 9.56349027,3.81842568 9.56349027,4.16247866 C9.56349027,4.5065142 9.35585011,4.81478847 9.03759285,4.94763975 C8.72102614,5.07878188 8.35510262,5.00554581 8.11341637,4.76199676 C7.78323384,4.42988165 7.78323384,3.89338397 8.11341637,3.562978 L8.11341637,3.56296056 Z M8.04533728,8.0320305 C8.28701916,7.78848145 8.65292961,7.71524538 8.96951375,7.84638751 C9.28778408,7.97752964 9.49541117,8.28749561 9.49541117,8.6315486 C9.49541117,8.97558414 9.28777101,9.28385841 8.96951375,9.41670969 C8.65294704,9.54785182 8.28702352,9.47461575 8.04533728,9.2310667 C7.71855761,8.89895158 7.72026122,8.36585476 8.04874014,8.03544879 L8.04533728,8.0320305 Z M2.44912649,6.03254681 C2.20574535,5.79069818 2.13255977,5.42453529 2.26361149,5.10773273 C2.39466321,4.78924283 2.70441548,4.5814725 3.04823127,4.5814725 C3.39202962,4.5814725 3.70009135,4.78925591 3.83285104,5.10773273 C3.96390276,5.42451785 3.89071719,5.79069382 3.64733604,6.03254681 C3.3154499,6.36295714 2.7793221,6.36295714 2.44914392,6.03254681 L2.44912649,6.03254681 Z M4.78255119,9.30259798 L4.78084758,9.30259798 C4.53916569,9.54614703 4.17325525,9.6193831 3.8566711,9.48824097 C3.53840077,9.35709883 3.33077368,9.04713286 3.33077368,8.70307988 C3.33077368,8.35904433 3.53841384,8.05077007 3.8566711,7.91791879 C4.17323782,7.78677666 4.53916134,7.86001272 4.78084758,8.10356178 C5.11103012,8.43567689 5.11103012,8.97217457 4.78084758,9.30258054 L4.78255119,9.30259798 Z M4.85063029,3.6292772 L4.84892668,3.63098198 C4.60554554,3.38743293 4.53235996,3.02297047 4.66341168,2.70446748 C4.79616701,2.38597758 5.10421567,2.17990767 5.44803145,2.17990767 C5.79182981,2.17990767 6.1015908,2.38599066 6.23265123,2.70446748 C6.36370295,3.02295739 6.29051737,3.38742857 6.04713623,3.63098198 C5.88885287,3.79107933 5.67269901,3.87964103 5.44634091,3.87964103 C5.21998282,3.87964103 5.00383767,3.79107933 4.8455456,3.63098198 L4.85063029,3.6292772 Z M6.98319442,11.4996364 L6.98319442,11.5013411 C6.73981328,11.7448902 6.37560209,11.8181263 6.05731869,11.6869841 C5.73903529,11.555842 5.53312052,11.245876 5.53312052,10.901823 C5.53312052,10.5577701 5.73906143,10.2478128 6.05731869,10.116662 C6.37557594,9.98551111 6.73980892,10.0587559 6.98319442,10.3023049 C7.14318139,10.4624023 7.23168204,10.6787009 7.23168204,10.9035148 C7.23168204,11.1300334 7.14318139,11.3463233 6.98319442,11.506425 L6.98319442,11.4996364 Z M7.05127352,7.03056642 L7.05127352,7.03227121 C6.80789238,7.27582026 6.44368118,7.34905633 6.12539778,7.2179142 C5.80711439,7.08677206 5.60119962,6.77680609 5.60119962,6.43275311 C5.60119962,6.08870012 5.80714053,5.77874287 6.12539778,5.64759202 C6.44365504,5.51644117 6.80788802,5.58968596 7.05127352,5.83323501 C7.3797568,6.16535012 7.37805319,6.7018478 7.04616704,7.03225377 L7.05127352,7.03056642 Z M17.970943,22.4730561 L17.970943,22.4747609 C17.7275618,22.7183099 17.3633507,22.791546 17.0450673,22.6604039 C16.7267969,22.5275569 16.5208691,22.2192958 16.5208691,21.8752428 C16.5208691,21.5312072 16.72681,21.2212325 17.0450673,21.0900817 C17.3633376,20.9589396 17.7275575,21.0321756 17.970943,21.2757247 C18.1360364,21.435822 18.22794,21.6572306 18.22794,21.887137 C18.2262363,22.1170609 18.1326292,22.3367473 17.9658365,22.496849 L17.970943,22.4730561 Z M20.171608,24.6752394 L20.171608,24.6769441 C19.9299261,24.9204932 19.5640157,24.9937293 19.2457323,24.8625871 C18.9291656,24.731445 18.7215341,24.421479 18.7215341,24.077426 C18.7215341,23.7333731 18.9291743,23.4234158 19.2457323,23.292265 C19.5640026,23.1611228 19.9299218,23.2343589 20.171608,23.4779079 C20.3367015,23.6380053 20.428605,23.8594139 20.428605,24.0893203 C20.4269014,24.3192441 20.3332942,24.5406746 20.1665015,24.6990322 L20.171608,24.6752394 Z M20.2396871,20.2061694 L20.2396871,20.2078742 C19.9980052,20.4514233 19.6320948,20.5246593 19.3138114,20.3935172 C18.9972447,20.2623751 18.7896132,19.9524091 18.7896132,19.6083561 C18.7896132,19.2643031 18.9972534,18.9543459 19.3138114,18.823195 C19.6320817,18.6920529 19.9980009,18.7652889 20.2396871,19.008838 C20.4030769,19.1706358 20.4932812,19.390344 20.4915776,19.6185499 C20.489874,19.8484738 20.3962668,20.0681602 20.2311734,20.2265615 L20.2396871,20.2061694 Z M14.9654632,20.6609245 L7.59069961,13.3133375 L13.3228507,7.57723178 L20.6889002,14.9483631 L14.9654632,20.6609245 Z M21.2422471,22.4049518 L21.2422471,22.4066566 C20.998866,22.1631076 20.9256804,21.7986451 21.0567321,21.4801421 C21.1894875,21.1616522 21.4975361,20.9555823 21.8413519,20.9555823 C22.1851503,20.9555823 22.4949112,21.1616653 22.6259717,21.4801421 C22.7570234,21.798632 22.6838378,22.1631032 22.4404567,22.4066566 C22.2838726,22.5701592 22.0694267,22.6655357 21.8413606,22.6689409 C21.6149982,22.6740509 21.3954589,22.5871896 21.2337683,22.428797 L21.2422471,22.4049518 Z M23.4429121,25.8061539 L23.4446158,25.8078586 C23.2012346,26.0514077 22.8370234,26.1246438 22.51874,25.9935016 C22.2004566,25.8623595 21.9945419,25.5523935 21.9945419,25.2083405 C21.9945419,24.8642876 22.2004828,24.5543303 22.51874,24.4231794 C22.8369973,24.2920286 23.2012303,24.3652734 23.4446158,24.6088224 C23.6080056,24.7706202 23.6999135,24.9920332 23.6982099,25.2219352 C23.6965062,25.4518373 23.6011955,25.6715455 23.4344028,25.8299467 L23.4429121,25.8061539 Z M23.5109912,20.1328331 L23.5126949,20.1345379 C23.2693137,19.8926892 23.1961281,19.5265263 23.3271799,19.2097238 C23.4582316,18.8912339 23.7679838,18.6834635 24.1117996,18.6834635 C24.455598,18.6834635 24.7636597,18.891247 24.8964194,19.2097238 C25.0274711,19.5265089 24.9542856,19.8926849 24.7109044,20.1345379 C24.5543203,20.3014456 24.3381708,20.3985269 24.1101091,20.4036369 C23.882043,20.4087425 23.6625081,20.3218856 23.4991182,20.1617883 L23.5109912,20.1328331 Z M25.8444159,23.4028842 L25.8444159,23.404589 C25.6027341,23.6481381 25.2368236,23.7213741 24.9202395,23.590232 C24.6019691,23.4590899 24.394342,23.1491239 24.394342,22.8050709 C24.394342,22.4610354 24.6019822,22.1527611 24.9202395,22.0199098 C25.2368062,21.8887677 25.6027297,21.9620038 25.8444159,22.2055528 C26.0095094,22.3673506 26.1014129,22.590464 26.0997137,22.8221101 C26.0963108,23.0537387 26.001,23.2734643 25.8308001,23.431822 L25.8444159,23.4028842 Z" id="Fill-1"></path>
            <path d="M4.50604758,15 L1.76056283,17.971807 C0.632817866,19.1844414 0,20.8257476 0,22.5402517 C0,24.2529726 0.632817866,25.8960161 1.76056283,27.1069132 C2.88664953,28.3177645 4.41471568,29 6.00753904,29 C7.6003624,29 9.12838602,28.3177645 10.2545152,27.1069132 L13,24.1547658 L4.50604758,15 Z" id="Fill-2"></path>
            <path d="M21.9923695,0.0144137445 C20.3979087,0.0162023113 18.8682043,0.702348695 17.7454488,1.92099854 L15,4.8746497 L23.4940114,14 L26.2394602,11.0463488 L26.2394602,11.0445603 C27.3671904,9.83309215 28,8.18916594 28,6.47557254 C28,4.76197913 27.3671904,3.11809867 26.2394602,1.90658479 C25.1167047,0.68793495 23.5870003,0.00178399249 21.9925396,0 L21.9923695,0.0144137445 Z" id="Fill-3"></path>
        </g>
    </g>
</svg>