<?xml version="1.0" encoding="UTF-8"?>
<svg width="17px" height="42px" viewBox="0 0 17 42" version="1.1" xmlns="http://www.w3.org/2000/svg" xmlns:xlink="http://www.w3.org/1999/xlink">
    <!-- Generator: Sketch 49.3 (51167) - http://www.bohemiancoding.com/sketch -->
    <title>artists-icon--white</title>
    <desc>Created with Sketch.</desc>
    <defs>
        <polygon id="path-1" points="1.57533219 0.00943933054 13.4246473 0.00943933054 13.4246473 17.1595381 1.57533219 17.1595381"></polygon>
    </defs>
    <g id="artists-icon--white" stroke="none" stroke-width="1" fill="none" fill-rule="evenodd">
        <g id="Page-1" transform="translate(1.000000, 1.000000)">
            <g id="Group-3">
                <g id="Group-2" fill="#FFFFFF">
                    <path d="M13.0341678,11.0282243 C12.1154349,10.4422494 9.92512671,10.4439565 9.92512671,10.4439565 C9.92512671,10.4439565 9.2962226,6.75110293 8.91067466,2.92151297 C8.74166781,1.24308619 8.76053767,0.0115882845 7.50002397,0.0094125523 C6.23951027,0.0115882845 6.25834589,1.24308619 6.08937329,2.92151297 C5.70382534,6.75110293 5.07498973,10.4439565 5.07498973,10.4439565 C5.07498973,10.4439565 2.88457877,10.4422494 1.96584589,11.0282243 C1.72009247,11.1849774 1.57533219,11.4559732 1.57533219,11.7428017 L1.57533219,16.3249941 C1.57533219,16.7849439 1.95711301,17.1595381 2.42769521,17.1595381 L7.49998973,17.1595381 L12.5723185,17.1595381 C13.0429007,17.1595381 13.4246473,16.7849439 13.4246473,16.3249941 L13.4246473,11.7428017 C13.4246473,11.4559732 13.2799212,11.1849774 13.0341678,11.0282243" id="Fill-1"></path>
                    <path d="M13.2876712,28.9957322 C13.2876712,29.7979414 12.6223288,30.448251 11.8015753,30.448251 L3.23267123,30.448251 C2.41191781,30.448251 1.74657534,29.7979414 1.74657534,28.9957322 L1.74657534,23.1308619 C1.74657534,22.3286527 2.41191781,21.6783766 3.23267123,21.6783766 L11.8015753,21.6783766 C12.6223288,21.6783766 13.2876712,22.3286527 13.2876712,23.1308619 L13.2876712,28.9957322 Z M14.4211986,19.1779247 C14.0573973,18.6393808 13.4326027,18.1084017 12.5805137,17.9636318 C12.5791438,17.9636653 10.0396575,17.9650042 7.5,17.9663431 C4.9475,17.9650042 2.42085616,17.9636653 2.4194863,17.9636318 C1.56739726,18.1084017 0.94260274,18.6393808 0.57880137,19.1779247 C0.196746575,19.7435816 0,20.4096904 0,21.0874812 L0,35.7039833 C0,36.4760335 0.111815068,37.240887 0.465890411,37.9309958 C0.840171233,38.6605021 1.52681507,39.412 2.48921233,39.6134059 C4.03407534,39.9367197 6.3025,40.0043682 7.5,39.9997824 C8.69743151,40.0043682 10.9659247,39.9367197 12.5107877,39.6134059 C13.4731849,39.412 14.1598288,38.6605021 14.5341096,37.9309958 C14.8881849,37.240887 15,36.4760335 15,35.7039833 L15,21.0874812 C15,20.4096904 14.8032534,19.7435816 14.4211986,19.1779247 Z" id="Fill-4"></path>
                </g>
                <mask id="mask-2" fill="white">
                    <use xlink:href="#path-1"></use>
                </mask>
                <g id="Clip-2"></g>
            </g>
        </g>
    </g>
</svg>