<?xml version="1.0" encoding="UTF-8"?>
<svg width="30px" height="31px" viewBox="0 0 30 31" version="1.1" xmlns="http://www.w3.org/2000/svg" xmlns:xlink="http://www.w3.org/1999/xlink">
    <!-- Generator: Sketch 49.3 (51167) - http://www.bohemiancoding.com/sketch -->
    <title>contactus-icon--orange</title>
    <desc>Created with Sketch.</desc>
    <defs></defs>
    <g id="contactus-icon--orange" stroke="none" stroke-width="1" fill="none" fill-rule="evenodd">
        <path d="M20.3716591,24.5489518 C21.1068829,25.3164744 21.1068829,26.2375016 20.3716591,26.9738322 C19.8507734,27.495502 19.3298877,27.9872077 18.8389211,28.5088775 C18.1336164,29.3075923 17.2750378,29.5522171 16.2644117,29.4910609 C14.792738,29.3987187 13.444419,28.938199 12.1572869,28.2942167 C9.27622992,26.8814838 6.82397171,24.948432 4.73914146,22.4923595 C3.20640345,20.6814972 1.94906811,18.6860611 1.12157351,16.4743678 C0.722816386,15.3998361 0.44741402,14.2941123 0.508478302,13.1285831 C0.569548716,12.3922525 0.846171142,11.7782344 1.36705683,11.2865287 C1.9490068,10.7336668 2.47111868,10.1808049 3.05306834,9.62917098 C3.78829211,8.89284044 4.70793492,8.89284044 5.44438488,9.62917098 L6.79270386,10.9795196 C7.22138002,11.4088411 7.68120143,11.8693547 8.11110379,12.2999042 C8.87747279,13.0674269 8.87747279,13.9884541 8.11110379,14.7559767 C7.55907286,15.3088386 7.00704194,15.8617006 6.45623721,16.4133344 C6.30296341,16.566839 6.30296341,16.6591812 6.36403382,16.8426559 C6.7316457,17.732491 7.25253139,18.5000136 7.8656266,19.2375722 C9.06067177,20.7114613 10.440136,22.0318459 12.0352871,23.0438706 C12.3729799,23.2585374 12.7705109,23.4120358 13.1393489,23.6266966 C13.3237557,23.7190388 13.4458965,23.6878589 13.5991703,23.5343544 C14.1512013,22.9814925 14.7032322,22.3986665 15.2540369,21.8458045 C15.9892607,21.109474 16.9089035,21.109474 17.6453535,21.8458045 C18.5937504,22.7680291 19.4834435,23.6590615 20.3719411,24.5489272 L20.3716591,24.5489518 Z M30,10.2115688 C30,15.2208915 25.6785378,19.2884615 20.3565401,19.2884615 C18.5497703,19.2884615 16.8414413,18.8330686 15.4212742,18.0136041 C14.0025909,18.9848662 12.5183664,19.1366639 11.4536443,18.9848662 C11.0983284,18.924384 11.0340773,18.4689971 11.3566291,18.3171994 C12.2914944,17.8926517 12.9051047,17.042342 13.2591304,16.3438299 C11.6791744,14.7345318 10.7115385,12.5798552 10.7115385,10.2115081 C10.7115385,5.20218541 15.0330006,1.13461538 20.3549983,1.13461538 C25.6782863,1.13461538 29.9997484,5.20218541 29.9997484,10.2115081 L30,10.2115688 Z M20.9229936,4.40462105 C20.9229936,3.84888199 20.4779632,3.40384615 19.9222309,3.40384615 C16.7267705,3.40384615 14.1153846,6.01537513 14.1153846,9.21076357 C14.1153846,9.76650262 14.560415,10.2115385 15.1161473,10.2115385 C15.6718795,10.2115385 16.1169099,9.76650262 16.1169099,9.21076357 C16.1169099,7.09851056 17.8394576,5.40422889 19.923398,5.40422889 C20.4791302,5.37709493 20.9230769,4.93315668 20.9230769,4.40453769 L20.9229936,4.40462105 Z" id="Page-1" fill="#FF7B0F"></path>
    </g>
</svg>