<svg height="31" viewBox="0 0 29 31" width="29" xmlns="http://www.w3.org/2000/svg" xmlns:xlink="http://www.w3.org/1999/xlink"><mask id="a" fill="#fff"><path d="m.0000248.00805298h24.9920883v25.50234102h-24.9920883z" fill="none"/></mask><g fill="#000" fill-rule="evenodd" transform="translate(2 2)"><path d="m12.4960565.00805298c-3.39370035 0-3.81929559.0146786-5.15208329.07673365-1.33010912.0619032-2.23844246.27747615-3.03333333.59271173-.82167659.3258143-1.51860119.76181933-2.21329365 1.47069446-.69474206.70892575-1.12197421 1.42002798-1.44131944 2.25847972-.30892858.81111917-.52013889 1.73799682-.58085318 3.09526113-.06081349 1.36004819-.07514881 1.79423104-.07514881 5.25726703 0 3.463036.01433532 3.8972694.07514881 5.2573176.06071429 1.3572137.2719246 2.284142.58085318 3.0952105.31934523.8384518.74657738 1.5496046 1.44131944 2.2584798.69469246.7089257 1.39161706 1.1448801 2.21329365 1.4707957.79489087.3151849 1.70322421.5307579 3.03333333.5927117 1.3327877.0620044 1.75838294.076683 5.15208329.076683 3.39375 0 3.8192461-.0146786 5.1520834-.076683 1.3301091-.0619538 2.2384424-.2775268 3.0333333-.5927117.8217262-.3259156 1.5186012-.76187 2.2132937-1.4707957.694742-.7088752 1.1219742-1.4199774 1.4413194-2.2584798.3089286-.8110685.5201885-1.7379968.5808532-3.0952105.0608135-1.3600482.0751984-1.7942816.0751984-5.2573176 0-3.46298537-.0143849-3.89721884-.0751984-5.25726703-.0606647-1.35726431-.2719246-2.28414196-.5808532-3.09526113-.3193452-.83845174-.7465774-1.54955397-1.4413194-2.25847972-.6946925-.70887513-1.3915675-1.14488016-2.2132937-1.47069446-.7948909-.31523558-1.7032242-.53080853-3.0333333-.59271173-1.3328373-.06205505-1.7583334-.07673365-5.1520834-.07673365m0 2.29750455c3.3366072 0 3.7317957.01295766 5.0494544.07430409 1.2183532.05674038 1.8800099.26446787 2.3203373.43909259.5832837.23131448.9996032.50762647 1.4368552.95380528.437252.44622944.7080357.87099774.9347718 1.46618965.1710813.449317.3746528 1.12448197.4302579 2.36770875.0600695 1.34455973.0728175 1.74786691.0728175 5.15254281 0 3.4047265-.012748 3.8080337-.0728175 5.1525428-.0556051 1.2432774-.2591766 1.9184424-.4302579 2.3677594-.2267361.5951413-.4975198 1.0199602-.9347718 1.466139-.437252.4462294-.8535715.7225414-1.4368552.9538559-.4403274.1745741-1.1019841.3823522-2.3203373.439042-1.3174603.0613464-1.7125992.0743547-5.0494544.0743547-3.33685511 0-3.731994-.0130083-5.04945432-.0743547-1.21835317-.0566898-1.88005952-.2644679-2.3203869-.439042-.58323413-.2313145-.99955357-.5076265-1.43680556-.9538559-.43725198-.4461788-.70808532-.8709977-.93477182-1.466139-.17108135-.449317-.37465278-1.124482-.43025794-2.3677088-.06011905-1.3445597-.07281746-1.7478669-.07281746-5.1525934 0-3.4046759.01269841-3.80798308.07281746-5.15254281.05560516-1.24322678.25917659-1.91839175.43025794-2.36770875.2266865-.59519191.49751984-1.01996021.93477182-1.46613903.43725199-.44622943.85357143-.72254142 1.43680556-.9538559.44032738-.17462472 1.10203373-.38235221 2.3203373-.43909259 1.31770833-.06134643 1.71289682-.07430409 5.04950392-.07430409" mask="url(#a)" transform="translate(0 .042568)"/><path d="m12.4960565 17.0521849c-2.3004464 0-4.16537694-1.9030045-4.16537694-4.2504163s1.86493054-4.25036567 4.16537694-4.25036567c2.3004465 0 4.165377 1.90295387 4.165377 4.25036567s-1.8649305 4.2504163-4.165377 4.2504163m0-10.79828651c-3.54394837 0-6.41691463 2.93156944-6.41691463 6.54787021 0 3.6163515 2.87296626 6.5479209 6.41691463 6.5479209 3.5439485 0 6.4168651-2.9315694 6.4168651-6.5479209 0-3.61630077-2.8729166-6.54787021-6.4168651-6.54787021"/><path d="m20.666002 5.9951906c0 .84508241-.6713294 1.53011748-1.499504 1.53011748s-1.4995536-.68503507-1.4995536-1.53011748c0-.84508242.671379-1.53011748 1.4995536-1.53011748s1.499504.68503506 1.499504 1.53011748"/></g></svg>