<?xml version="1.0" encoding="UTF-8"?>
<svg width="29px" height="31px" viewBox="0 0 29 31" version="1.1" xmlns="http://www.w3.org/2000/svg" xmlns:xlink="http://www.w3.org/1999/xlink" style="background: #FFFFFF;">
    <!-- Generator: Sketch 49.3 (51167) - http://www.bohemiancoding.com/sketch -->
    <title>sm-icons--instagram-black</title>
    <desc>Created with Sketch.</desc>
    <defs>
        <polygon id="path-1" points="2.87698413e-05 0.00924601808 28.9908512 0.00924601808 28.9908512 29.2897116 2.87698413e-05 29.2897116"></polygon>
    </defs>
    <g id="sm-icons--instagram-black" stroke="none" stroke-width="1" fill="none" fill-rule="evenodd">
        <g id="Group-2">
            <g id="Page-1">
                <g id="Group-3" transform="translate(0.000000, 0.048874)">
                    <mask id="mask-2" fill="white">
                        <use xlink:href="#path-1"></use>
                    </mask>
                    <g id="Clip-2"></g>
                    <path d="M14.4954256,0.00924601808 C10.5587331,0.00924601808 10.0650427,0.0260992251 8.51900893,0.0973476108 C6.97608234,0.168421653 5.92241567,0.415931339 5.00034226,0.777868489 C4.04719742,1.15195157 3.23876488,1.65254994 2.43292163,2.46644361 C1.62702083,3.28039539 1.13143155,4.0968461 0.760991071,5.05951291 C0.402633929,5.99079789 0.15762996,7.05499074 0.0872013889,8.61333125 C0.0166577381,10.1748681 2.87698413e-05,10.6733743 2.87698413e-05,14.6494526 C2.87698413e-05,18.625531 0.0166577381,19.1240954 0.0872013889,20.6856322 C0.15762996,22.2439146 0.402633929,23.3081655 0.760991071,24.2393924 C1.13143155,25.2020592 1.62702083,26.018568 2.43292163,26.8324617 C3.23876488,27.6464135 4.04719742,28.1469537 5.00034226,28.521153 C5.92241567,28.8830321 6.97608234,29.1305418 8.51900893,29.2016739 C10.0650427,29.2728642 10.5587331,29.2897174 14.4954256,29.2897174 C18.4321756,29.2897174 18.925751,29.2728642 20.4718423,29.2016739 C22.0147688,29.1305418 23.0684355,28.8830321 23.9905089,28.521153 C24.9437113,28.1469537 25.7520863,27.6464135 26.5579296,26.8324617 C27.3638304,26.018568 27.8594196,25.2021173 28.2298601,24.2393924 C28.5882173,23.3081655 28.8332788,22.2439146 28.9036498,20.6856322 C28.9741935,19.1240954 28.99088,18.625531 28.99088,14.6494526 C28.99088,10.6734324 28.9741935,10.1748681 28.9036498,8.61333125 C28.8332788,7.05499074 28.5882173,5.99079789 28.2298601,5.05951291 C27.8594196,4.0968461 27.3638304,3.28039539 26.5579296,2.46644361 C25.7520863,1.65254994 24.9437113,1.15195157 23.9905089,0.777868489 C23.0684355,0.415931339 22.0147688,0.168421653 20.4718423,0.0973476108 C18.925751,0.0260992251 18.4321756,0.00924601808 14.4954256,0.00924601808 M14.4954256,2.64712161 C18.3658899,2.64712161 18.8243085,2.66199892 20.3527927,2.73243371 C21.7660823,2.79758007 22.5336042,3.03608201 23.0443839,3.23657706 C23.7209931,3.50216035 24.2039236,3.81940745 24.7111359,4.33168683 C25.2183482,4.84402432 25.5324573,5.33172127 25.7954712,6.01508975 C25.9939256,6.53097223 26.2300685,7.30616164 26.2945704,8.73357017 C26.364251,10.2773239 26.3790387,10.7403803 26.3790387,14.6494526 C26.3790387,18.5585831 26.364251,19.0216395 26.2945704,20.5653351 C26.2300685,21.9928018 25.9939256,22.7679912 25.7954712,23.2838737 C25.5324573,23.967184 25.2183482,24.4549391 24.7111359,24.9672185 C24.2039236,25.479556 23.7209931,25.7968031 23.0443839,26.0623864 C22.5336042,26.2628233 21.7660823,26.5013833 20.3527927,26.5664716 C18.8245387,26.6369064 18.3661776,26.6518418 14.4954256,26.6518418 C10.6246736,26.6518418 10.1663125,26.6369064 8.63805853,26.5664716 C7.22476885,26.5013833 6.45718948,26.2628233 5.94640972,26.0623864 C5.26985813,25.7968031 4.78692758,25.479556 4.27971528,24.9672185 C3.77250298,24.4549391 3.45833631,23.967184 3.19537996,23.2838737 C2.9969256,22.7679912 2.76078274,21.9928018 2.69628075,20.5653932 C2.62654266,19.0216395 2.6118125,18.5585831 2.6118125,14.6494526 C2.6118125,10.7403803 2.62654266,10.2773239 2.69628075,8.73357017 C2.76078274,7.30616164 2.9969256,6.53097223 3.19537996,6.01508975 C3.45833631,5.33172127 3.77250298,4.84402432 4.27971528,4.33174494 C4.78692758,3.81940745 5.26985813,3.50216035 5.94640972,3.23657706 C6.45718948,3.03608201 7.22476885,2.79758007 8.63800099,2.73243371 C10.1665427,2.66199892 10.6249613,2.64712161 14.4954256,2.64712161" id="Fill-1" fill="#000000" mask="url(#mask-2)"></path>
                </g>
                <path d="M14.4954256,19.5784346 C11.8269077,19.5784346 9.66358829,17.3935034 9.66358829,14.6983269 C9.66358829,12.0031505 11.8269077,9.81827744 14.4954256,9.81827744 C17.1639435,9.81827744 19.3272629,12.0031505 19.3272629,14.6983269 C19.3272629,17.3935034 17.1639435,19.5784346 14.4954256,19.5784346 M14.4954256,7.18040185 C10.3844454,7.18040185 7.05180456,10.5462779 7.05180456,14.6983269 C7.05180456,18.8504341 10.3844454,22.2163102 14.4954256,22.2163102 C18.6064058,22.2163102 21.9389891,18.8504341 21.9389891,14.6983269 C21.9389891,10.5462779 18.6064058,7.18040185 14.4954256,7.18040185" id="Fill-4" fill="#000000"></path>
                <path d="M23.9725623,6.88336698 C23.9725623,7.85364679 23.1938202,8.64016853 22.2331377,8.64016853 C21.2724552,8.64016853 20.4936556,7.85364679 20.4936556,6.88336698 C20.4936556,5.91308717 21.2724552,5.12656543 22.2331377,5.12656543 C23.1938202,5.12656543 23.9725623,5.91308717 23.9725623,6.88336698" id="Fill-6" fill="#000000"></path>
            </g>
        </g>
    </g>
</svg>