<?xml version="1.0" encoding="UTF-8"?>
<svg width="29px" height="31px" viewBox="0 0 29 31" version="1.1" xmlns="http://www.w3.org/2000/svg" xmlns:xlink="http://www.w3.org/1999/xlink" style="background: #FFFFFF;">
    <!-- Generator: Sketch 49.3 (51167) - http://www.bohemiancoding.com/sketch -->
    <title>sm-icons--facebook-black</title>
    <desc>Created with Sketch.</desc>
    <defs></defs>
    <g id="sm-icons--facebook-black" stroke="none" stroke-width="1" fill="none" fill-rule="evenodd">
        <path d="M21,1.03236393 C20.9613992,2.80263493 20.8738413,4.09046721 20.8738413,5.79694467 C18.9635718,5.88864789 17.4468424,5.52482531 16.9167874,6.67908984 C16.4676999,7.65692535 16.6691773,8.88196086 16.6663528,10.6492415 L21,10.6492415 C20.9020857,12.4274867 20.7184965,14.1150255 20.5000724,15.7666803 L16.7501448,15.7666803 C16.5552578,20.5013579 16.7228418,25.6187967 16.6663528,30.5 L10.8338644,30.5 C10.8357474,25.939758 10.8329229,20.619974 10.8338644,15.7666803 L8,15.7666803 L8,10.6492415 L10.7500724,10.6492415 C10.8818801,7.2452576 10.7397161,4.33667044 12.3336472,2.62122202 C14.1252897,0.69047037 17.1239137,1.01143167 21,1.03236393" id="Fill-1" fill="#000000"></path>
    </g>
</svg>