<?xml version="1.0" encoding="UTF-8"?>
<svg width="43px" height="42px" viewBox="0 0 43 42" version="1.1" xmlns="http://www.w3.org/2000/svg" xmlns:xlink="http://www.w3.org/1999/xlink">
    <!-- Generator: Sketch 49.3 (51167) - http://www.bohemiancoding.com/sketch -->
    <title>tattoo-icon--white</title>
    <desc>Created with Sketch.</desc>
    <defs>
        <polygon id="path-1" points="0 0 42.9724292 0 42.9724292 12.9288107 0 12.9288107"></polygon>
    </defs>
    <g id="tattoo-icon--white" stroke="none" stroke-width="1" fill="none" fill-rule="evenodd">
        <g id="Group">
            <g id="Page-1">
                <path d="M35.9067148,32.9572954 C35.9067148,33.7827598 35.2376557,34.4519573 34.412362,34.4519573 L24.138687,34.4519573 C23.3133933,34.4519573 22.6443342,33.7827598 22.6443342,32.9572954 L22.6443342,20.5516014 C22.6443342,19.726137 23.3133933,19.0569395 24.138687,19.0569395 L34.412362,19.0569395 C35.2376557,19.0569395 35.9067148,19.726137 35.9067148,20.5516014 L35.9067148,32.9572954 Z M20.3654463,32.9572954 C20.3654463,33.7827598 19.6963872,34.4519573 18.8710936,34.4519573 L8.59741851,34.4519573 C7.77212485,34.4519573 7.10306577,33.7827598 7.10306577,32.9572954 L7.10306577,20.5516014 C7.10306577,19.726137 7.77212485,19.0569395 8.59741851,19.0569395 L18.8710936,19.0569395 C19.6963872,19.0569395 20.3654463,19.726137 20.3654463,20.5516014 L20.3654463,32.9572954 Z M2.62000756,14.4234875 L2.62000756,39.3495534 C2.62000756,40.8133505 3.80641156,42 5.26990591,42 L37.7024785,42 C39.1660102,42 40.3524142,40.8133505 40.3524142,39.3495534 L40.3524142,14.4234875 L2.62000756,14.4234875 Z" id="Fill-1" fill="#FFFFFF"></path>
                <path d="M8.4433881,23.1438683 C8.31431338,23.1438683 8.18523866,23.0946192 8.08676082,22.996121 C7.88980513,22.7991246 7.88980513,22.4797153 8.08676082,22.2827189 L10.3235454,20.0455089 C10.5204637,19.8485125 10.8398442,19.8485125 11.0367626,20.0455089 C11.2337182,20.2425053 11.2337182,20.5619146 11.0367626,20.758911 L8.80001538,22.996121 C8.70157489,23.0946192 8.57250017,23.1438683 8.4433881,23.1438683" id="Fill-3" fill="#FFFFFF"></path>
                <path d="M9.06952937,25.0585564 C8.94041729,25.0585564 8.81134257,25.0093073 8.71290209,24.9108091 C8.51590904,24.7138126 8.51590904,24.3944034 8.71290209,24.1974069 L12.237856,20.671761 C12.4347744,20.4747272 12.7541175,20.4747272 12.9510732,20.671761 C13.1480289,20.8687575 13.1480289,21.1881294 12.9510732,21.3851258 L9.42615665,24.9108091 C9.3276788,25.0093073 9.19860408,25.0585564 9.06952937,25.0585564" id="Fill-5" fill="#FFFFFF"></path>
                <path d="M32.2499664,33.5407628 C32.1208917,33.5407628 31.9918169,33.4915137 31.8933391,33.3930155 C31.6963834,33.196019 31.6963834,32.8766098 31.8933391,32.6796133 L34.1301236,30.4424034 C34.327042,30.2454069 34.6464225,30.2454069 34.8433408,30.4424034 C35.0402965,30.6393998 35.0402965,30.9588091 34.8433408,31.1558055 L32.6065937,33.3930155 C32.5081532,33.4915137 32.3790785,33.5407628 32.2499664,33.5407628" id="Fill-7" fill="#FFFFFF"></path>
                <path d="M30.3356744,32.9145294 C30.2065623,32.9145294 30.0775249,32.8652802 29.9790471,32.766782 C29.782054,32.5697856 29.782054,32.2503763 29.9790471,32.0533799 L33.5040384,28.527734 C33.7009941,28.3307002 34.0202626,28.3307002 34.2172556,28.527734 C34.4142113,28.7247304 34.4142113,29.0441023 34.2172556,29.2410988 L30.6923017,32.766782 C30.5938238,32.8652802 30.4647117,32.9145294 30.3356744,32.9145294" id="Fill-9" fill="#FFFFFF"></path>
                <path d="M14.1920659,5.49113007 C14.1231016,5.21312295 14.0776359,5.01384715 14.055781,4.89341477 C14.0360929,5.00506601 13.9972023,5.18450018 13.9392215,5.44064786 C13.8812032,5.69683292 13.7525768,6.20285071 13.5534169,6.95018167 L14.5745829,6.95018167 L14.3677271,6.16645569 C14.3195716,5.99131868 14.2610303,5.76921192 14.1920659,5.49113007" id="Fill-11" fill="#FFFFFF"></path>
                <path d="M34.3838685,5.1101669 C33.7337503,5.1101669 33.4086539,5.57874342 33.4086539,6.51578434 C33.4086539,7.44411886 33.7315461,7.90828612 34.3773307,7.90828612 C34.70564,7.90828612 34.9491447,7.79555125 35.1078824,7.57000676 C35.2665826,7.34453701 35.3459328,6.99314199 35.3459328,6.51578434 C35.3459328,6.0362968 35.2654992,5.68217402 35.1045948,5.45337865 C34.9436904,5.22462064 34.7034732,5.1101669 34.3838685,5.1101669" id="Fill-13" fill="#FFFFFF"></path>
                <path d="M28.6889836,5.1101669 C28.0388654,5.1101669 27.713769,5.57874342 27.713769,6.51578434 C27.713769,7.44411886 28.0366613,7.90828612 28.6824458,7.90828612 C29.0107551,7.90828612 29.2542599,7.79555125 29.4129975,7.57000676 C29.5716977,7.34453701 29.6510479,6.99314199 29.6510479,6.51578434 C29.6510479,6.0362968 29.5706143,5.68217402 29.4097099,5.45337865 C29.2488055,5.22462064 29.0085883,5.1101669 28.6889836,5.1101669" id="Fill-15" fill="#FFFFFF"></path>
                <g id="Group-19">
                    <mask id="mask-2" fill="white">
                        <use xlink:href="#path-1"></use>
                    </mask>
                    <g id="Clip-18"></g>
                    <path d="M36.1175717,8.35820925 C35.721344,8.77858292 35.1412363,8.98876975 34.3773232,8.98876975 C33.6242441,8.98876975 33.0469383,8.77749929 32.6452937,8.354921 C32.2435369,7.93238007 32.0427333,7.31713986 32.0427333,6.50923772 C32.0427333,5.71007936 32.2424909,5.0998089 32.6420061,4.67831423 C33.0414466,4.25685694 33.6221147,4.04610961 34.383861,4.04610961 C35.1478115,4.04610961 35.7268358,4.25521281 36.1208593,4.67338185 C36.5148827,5.09158826 36.7118758,5.70574484 36.7118758,6.51577687 C36.7118758,7.323679 36.5137246,7.93783559 36.1175717,8.35820925 Z M30.4227055,8.35820925 C30.0264778,8.77858292 29.4463328,8.98876975 28.6824196,8.98876975 C27.9293779,8.98876975 27.3520721,8.77749929 26.9503901,8.354921 C26.5486707,7.93238007 26.3478671,7.31713986 26.3478671,6.50923772 C26.3478671,5.71007936 26.5475873,5.0998089 26.9471025,4.67831423 C27.3465804,4.25685694 27.9272111,4.04610961 28.6889948,4.04610961 C29.4529079,4.04610961 30.0319322,4.25521281 30.4259557,4.67338185 C30.8199791,5.09158826 31.0169722,5.70574484 31.0169722,6.51577687 C31.0169722,7.323679 30.8188584,7.93783559 30.4227055,8.35820925 Z M25.4462493,5.19393523 L24.2134083,5.19393523 L24.2134083,8.93059004 L22.9058497,8.93059004 L22.9058497,5.19393523 L21.6730087,5.19393523 L21.6730087,4.11030534 L25.4462493,4.11030534 L25.4462493,5.19393523 Z M20.8511147,5.19393523 L19.6182737,5.19393523 L19.6182737,8.93059004 L18.310715,8.93059004 L18.310715,5.19393523 L17.077874,5.19393523 L17.077874,4.11030534 L20.8511147,4.11030534 L20.8511147,5.19393523 Z M15.0802606,8.93059004 L14.8438167,8.03379288 L13.2841607,8.03379288 L13.041179,8.93059004 L11.6161642,8.93059004 L13.1823579,4.11030534 L14.9127811,4.11030534 L16.4987003,8.93059004 L15.0802606,8.93059004 Z M11.0631043,5.19393523 L9.79290443,5.19393523 L9.79290443,8.93059004 L8.5227046,8.93059004 L8.5227046,5.19393523 L7.25250478,5.19393523 L7.25250478,4.11030534 L11.0631043,4.11030534 L11.0631043,5.19393523 Z M42.9045856,9.75194413 L41.1162937,2.02046904 C40.8440599,0.842899644 39.79551,-1.49466192e-05 38.5871017,-1.49466192e-05 L4.38532754,-1.49466192e-05 C3.1769192,-1.49466192e-05 2.12833189,0.842899644 1.85613553,2.02046904 L0.0678436142,9.75194413 C-0.308322328,11.3792199 0.927171156,12.9288107 2.59703562,12.9288107 L40.3753936,12.9288107 C42.0452207,12.9288107 43.2807515,11.3792199 42.9045856,9.75194413 Z" id="Fill-17" fill="#FFFFFF" mask="url(#mask-2)"></path>
                </g>
            </g>
        </g>
    </g>
</svg>